# xmcd
#
# Track frame offsets:
#	182
#	10445
#	19575
#	28827
#	40665
#	52272
#	62630
#	74920
#	83652
#	93845
#	102442
#	113160
#	126090
#	135990
#	146937
#	158235
#
# Disc length: 2236 seconds
#
# Revision: 1
# Processed by: cddbd v1.5.2PL0 Copyright (c) Steve Scherf et al.
# Submitted via: audiograbber 1.83.01
#
DISCID=e008ba10
DTITLE=Various Artist - Rock 'N' Roll Collection 1962
DYEAR=1900
DGENRE=Rock and Roll
TTITLE0=The Everly Brothers - Rip It Up
TTITLE1=Tommy Roe - Sheila
TTITLE2=B. Bumble Stringers - Nut Rocker
TTITLE3=Pat Boone - Speedy Gonzales
TTITLE4=Neil Sedaka - Happy Birthday Sweet Sixteen
TTITLE5=Chris Montez - Let's Dance
TTITLE6=Dion and The Belmonts - The Majestic
TTITLE7=Clyde McPhatter - Lover Please
TTITLE8=Buddy Knox - Devil Woman
TTITLE9=Freddy Cannon - Palisades Park
TTITLE10=Jimmy Clanton - Venus In Blue Jeans
TTITLE11=Dave ''Baby'' Cortez - Rinky Dink
TTITLE12=Ernie Maresca - Shout! Shout! (Knock Yourself Out)
TTITLE13=Gene Chandler - Duke Of Earl
TTITLE14=Del Shannon - Hey Little Girl
TTITLE15=Elvis Presley - Return To Sender
EXTD=Priester
EXTT0=Priester
EXTT1=
EXTT2=
EXTT3=
EXTT4=
EXTT5=
EXTT6=
EXTT7=
EXTT8=
EXTT9=
EXTT10=
EXTT11=
EXTT12=
EXTT13=
EXTT14=
EXTT15=
PLAYORDER=
